<svg width="150" height="47" viewBox="0 0 150 47" fill="none" xmlns="http://www.w3.org/2000/svg">
<g clip-path="url(#clip0_622_136240)">
<path d="M149.994 26.5706C149.998 26.6547 150.002 26.7615 149.994 26.8433C149.903 27.7396 148.86 28.4963 148.001 28.5349C146.689 28.594 145.744 26.9671 145.113 26.0253C143.614 27.1466 141.978 28.1316 140.09 28.4167C136.489 28.9586 132.62 27.2545 132.872 23.1067C133.145 18.6294 138.233 18.484 141.544 17.7115C142.642 17.4547 143.743 17.173 144.818 16.8321C144.682 15.0633 144.409 13.7693 142.437 13.4909C140.814 13.2614 138.974 13.4943 137.863 14.7929C137.461 15.2621 136.937 16.3493 136.526 16.6731C136.144 16.973 135.164 16.906 134.73 16.7287C133.428 16.1971 133.504 14.7247 134.026 13.6284C135.665 10.1883 141.507 9.94522 144.716 10.6121C150.838 11.8845 148.869 18.3761 149.177 22.9999C149.259 24.2303 149.934 25.4913 149.994 26.5717V26.5706ZM144.815 19.5894C144.028 19.7905 143.25 20.0177 142.461 20.2063C140.542 20.6641 136.753 20.8402 137.416 23.744C137.938 26.0264 141.047 25.8685 142.69 24.9608C144.797 23.7963 144.842 21.7695 144.815 19.5883V19.5894Z" fill="#E9EEF9"/>
<path d="M23.2348 18.418C23.2302 18.4361 23.1496 18.5145 23.1246 18.5259L10.338 18.5566C6.72526 18.6827 3.42722 17.3182 1.51292 14.1872C-0.302531 11.2164 0.14054 8.67722 0.121226 5.38259C0.112138 3.77504 -0.0560022 2.08569 0.0621501 0.474728C0.0678305 0.399747 0.0985047 0.0964135 0.155309 0.0646033L0.525671 0.0100715C5.37673 -0.0262831 10.238 0.0430178 15.0823 0.0702837C23.1291 0.115727 29.5116 -0.765871 36.4462 4.11359C49.6225 13.3817 49.5929 32.9768 36.3372 42.1563C32.3779 44.8977 28.2733 46.0111 23.4779 46.1997C16.725 46.4655 9.76427 46.244 2.98301 46.3133C2.03438 46.3235 1.06758 46.3473 0.128043 46.2474C0.0757831 46.1588 0.0689666 46.0588 0.061014 45.9588C-0.136664 43.3015 0.215521 40.4022 0.061014 37.72C-0.0946289 32.2384 3.67602 27.9963 9.19282 27.7679C13.7633 27.5782 18.4621 27.9179 23.0462 27.7679L23.2348 27.852V36.8225L23.429 36.7713C27.5439 32.5962 31.8394 28.5552 35.885 24.3085C36.0247 24.162 36.9666 23.1872 36.9597 23.1066C35.9838 21.9466 34.8671 20.9196 33.8105 19.8369C30.8249 16.7809 27.8211 13.7101 24.7333 10.7574C24.3765 10.4166 23.988 9.93259 23.6176 9.63721C23.5074 9.5486 23.387 9.43158 23.2359 9.44635V18.4168L23.2348 18.418Z" fill="#E9EEF9"/>
<path d="M103.15 10.3905C109.229 9.94743 113.323 13.8976 113.032 20.0017C112.761 25.6571 108.559 29.0483 102.971 28.478C92.5164 27.4112 92.6595 11.1539 103.15 10.3905ZM103.806 13.6624C99.8395 13.943 99.1329 19.0224 100.108 22.0728C101.351 25.9627 106.283 26.3558 107.952 22.6636C109.438 19.3758 108.443 13.3352 103.806 13.6624Z" fill="#E9EEF9"/>
<path d="M63.5143 10.3906C66.0535 10.2168 69.9809 10.7394 71.3999 13.1604C72.403 14.8736 71.4533 16.4425 69.4481 16.2039C68.2711 16.0631 67.4054 14.0704 66.1807 13.5285C64.9946 13.0036 62.6816 13.0922 61.9 14.284C60.999 15.6575 62.6373 16.522 63.7029 16.8799C67.3963 18.1171 73.8697 18.4863 72.4859 24.2178C71.2431 29.3643 62.3021 29.587 58.9212 26.7343C57.6181 25.6357 56.3105 22.7069 58.6292 22.0286C60.6196 21.4469 60.9207 23.6294 62.134 24.6643C63.5234 25.8493 66.5238 26.0787 67.8542 24.712C68.5915 23.9543 68.4006 22.666 67.5781 22.0548C66.292 21.1004 63.1076 20.6517 61.441 20.0144C54.8449 17.49 57.2727 10.8201 63.5155 10.3918L63.5143 10.3906Z" fill="#E9EEF9"/>
<path d="M83.9047 10.3361C86.6063 10.1986 89.6897 11.1404 91.3529 13.3785C92.2311 14.5589 92.7673 16.3709 91.1677 17.2196C89.1216 18.3045 88.432 15.9347 87.2675 14.8474C86.0122 13.6773 84.1161 13.4251 82.571 14.1817C78.3914 16.2301 79.248 26.5707 85.6293 25.0392C87.7333 24.5337 87.8924 23.1136 89.0671 21.7707C90.6088 20.0098 92.9195 21.6048 92.2845 23.8975C91.6199 26.298 88.958 27.8465 86.6438 28.2895C81.0373 29.3631 75.9442 26.6297 75.575 20.5983C75.2319 15.0008 78.0278 10.6337 83.9047 10.3361Z" fill="#E9EEF9"/>
<path d="M122.844 23.243C122.926 23.2305 122.966 23.0567 122.993 22.984C124.346 19.5178 125.445 15.9357 126.837 12.4866C127.351 11.2108 127.722 10.1872 129.352 10.3792C129.802 10.4326 130.288 10.7211 130.582 11.0563C131.297 11.8686 131.051 12.6831 130.733 13.6034C129.203 18.0341 126.995 22.4228 125.378 26.8421C124.291 29.2631 121.057 29.0245 120.233 26.5331C118.656 22.2728 116.488 18.0159 115.044 13.7272C114.658 12.5786 114.42 11.4675 115.627 10.7086C116.911 9.89975 118.416 10.4462 118.817 11.9174L122.842 23.2419L122.844 23.243Z" fill="#E9EEF9"/>
<path d="M50.9738 10.3881C52.4348 10.1904 53.5015 11.0164 53.6606 12.4717L53.6515 26.4273C53.4993 28.0939 51.7292 29.113 50.2603 28.1962C49.3617 27.6361 49.2321 26.592 49.1856 25.6173C48.9754 21.2922 49.3026 16.7581 49.2435 12.4194C49.3458 11.4776 49.9774 10.5222 50.9738 10.3881Z" fill="#E9EEF9"/>
<path d="M74.703 38.3766C74.5996 38.8981 73.6135 39.0072 73.5078 38.263V33.1473C73.5669 32.7883 73.7839 32.6542 74.1281 32.6224C74.8029 32.5588 76.8956 32.552 77.4659 32.778C79.0644 33.4142 78.6372 35.7659 76.9388 35.9227C77.3069 36.2022 77.6091 36.518 77.8772 36.8929C78.0669 37.1565 78.5906 38.0245 78.5725 38.3198C78.5463 38.7368 78.0044 38.8845 77.6613 38.7459C77.2785 38.5914 76.5025 36.7952 76.0129 36.359C75.7141 36.0931 75.0517 35.9466 74.703 36.142V38.3778V38.3766ZM74.703 35.1865H76.3662C76.7581 35.1865 77.2012 34.8025 77.2137 34.3935C77.2262 34.0152 76.8604 33.5506 76.4753 33.5506H74.703V35.1865Z" fill="#E9EEF9"/>
<path d="M144.803 32.5292C145.541 32.4406 146.348 32.5065 146.959 32.9598C147.378 33.2711 147.851 34.097 147.289 34.4697C146.633 34.9048 146.463 33.9732 146.145 33.6653C145.276 32.8224 143.393 33.8823 144.578 34.6321C145.459 35.1899 147.258 34.9423 147.707 36.2465C148.634 38.9413 144.051 39.7013 143.114 37.6234C142.955 37.2701 142.817 36.8009 143.214 36.5578C143.908 36.1318 144.052 37.0872 144.324 37.4496C144.971 38.3119 146.901 37.8961 146.534 36.71C146.363 36.1568 145.013 36.0125 144.512 35.8421C142.351 35.107 142.729 32.7769 144.802 32.5292H144.803Z" fill="#E9EEF9"/>
<path d="M51.0835 3.95455C52.0617 3.82958 53.1466 4.22493 53.5204 5.19401C54.1384 6.79588 53.0342 8.41707 51.2926 8.29437C48.5046 8.09783 48.6114 4.27151 51.0835 3.95455Z" fill="#E9EEF9"/>
<path d="M120.335 36.3318V38.1041C120.335 38.1825 120.205 38.5495 120.141 38.6188C119.829 38.9607 119.164 38.7846 119.093 38.3086C119.183 36.6863 118.929 34.8447 119.079 33.2485C119.114 32.8725 119.267 32.668 119.654 32.6237C120.22 32.5589 121.472 32.5726 122.052 32.6237C124.45 32.8373 124.218 36.3307 121.78 36.3307H120.335V36.3318ZM121.671 33.5507C121.266 33.4951 120.753 33.5916 120.335 33.5507V35.4048H121.399C121.437 35.4048 121.791 35.3321 121.853 35.3139C122.773 35.0367 122.663 33.6859 121.671 33.5507Z" fill="#E9EEF9"/>
<path d="M52.3493 33.6597V38.3767C52.3493 38.3949 52.1789 38.6528 52.1448 38.6778C51.9676 38.813 51.6552 38.8255 51.4564 38.7244C51.3871 38.6891 51.1496 38.4347 51.1496 38.3767V33.6597H49.65C49.1308 33.6597 48.9593 32.7929 49.5125 32.6497L53.9887 32.6475C54.5624 32.7838 54.3704 33.6597 53.849 33.6597H52.3493Z" fill="#E9EEF9"/>
<path d="M98.4569 32.5259C98.9386 32.4157 99.2397 32.6679 99.2908 33.1417C99.4589 34.7083 99.1647 36.5613 99.2908 38.1586C99.1931 39.0288 98.1206 39.0981 98.0343 37.9973C97.9377 36.7567 97.9264 34.4834 98.0377 33.2519C98.0627 32.9792 98.14 32.5997 98.4569 32.527V32.5259Z" fill="#E9EEF9"/>
</g>
<defs>
<clipPath id="clip0_622_136240">
<rect width="150" height="46.3339" fill="white"/>
</clipPath>
</defs>
</svg>
