<svg width="117" height="116" viewBox="0 0 117 116" fill="none" xmlns="http://www.w3.org/2000/svg">
<rect y="0.690674" width="117" height="115" rx="24" fill="url(#paint0_linear_395_184388)"/>
<path d="M20.4301 33.1147C20.2221 34.0107 19.7741 34.7147 19.1021 35.2107C18.4301 35.7227 17.6141 35.9627 16.6861 35.9627C15.4381 35.9627 14.4461 35.5627 13.7101 34.7627C12.9741 33.9627 12.6221 32.9227 12.6221 31.6587C12.6221 30.3787 12.9901 29.3067 13.7421 28.4587C14.4941 27.6267 15.4541 27.1947 16.6221 27.1947C17.8221 27.1947 18.7821 27.6107 19.4861 28.4427C20.1901 29.2747 20.5421 30.3947 20.5421 31.8187V32.0107H14.4461C14.4621 32.8427 14.6701 33.4987 15.0701 33.9467C15.4541 34.3947 16.0141 34.6187 16.7181 34.6187C17.2141 34.6187 17.6141 34.5067 17.9341 34.2667C18.2541 34.0267 18.4941 33.6427 18.6861 33.1147H20.4301ZM18.7181 30.7947C18.6541 30.1067 18.4461 29.5627 18.0621 29.1627C17.6781 28.7627 17.1981 28.5547 16.6061 28.5547C15.9981 28.5547 15.5181 28.7467 15.1501 29.1307C14.7821 29.5147 14.5581 30.0747 14.4781 30.7947H18.7181ZM24.1368 31.3547L21.2728 27.4347H23.4808L25.2088 29.9787L27.0168 27.4347H29.1288L26.3288 31.2587L29.4808 35.6907H27.2888L25.1927 32.6507L23.1608 35.6907H21.0168L24.1368 31.3547ZM32.2665 27.4347V28.5387C32.8105 27.6427 33.7065 27.1947 34.9545 27.1947C36.0905 27.1947 37.0025 27.5947 37.6905 28.3947C38.3625 29.1947 38.7145 30.2667 38.7145 31.5947C38.7145 32.9067 38.3785 33.9467 37.7065 34.7307C37.0345 35.5147 36.1545 35.8987 35.0505 35.8987C33.8665 35.8987 32.9705 35.4667 32.3625 34.6027V38.7467H30.5545V27.4347H32.2665ZM34.5865 28.6667C33.8665 28.6667 33.3065 28.9227 32.9065 29.4347C32.4905 29.9467 32.2985 30.6667 32.2985 31.5627C32.2985 32.4587 32.4905 33.1627 32.9065 33.6747C33.3225 34.1867 33.8825 34.4427 34.6185 34.4427C35.3065 34.4427 35.8505 34.1867 36.2665 33.6747C36.6665 33.1627 36.8745 32.4747 36.8745 31.5947C36.8745 30.6987 36.6665 29.9947 36.2505 29.4667C35.8345 28.9387 35.2905 28.6667 34.5865 28.6667ZM42.1758 24.2987V35.6907H40.3678V24.2987H42.1758ZM47.9871 27.1947C49.2351 27.1947 50.2431 27.5947 50.9951 28.3787C51.7311 29.1787 52.1151 30.2347 52.1151 31.5627C52.1151 32.9067 51.7311 33.9787 50.9951 34.7627C50.2591 35.5627 49.2511 35.9467 47.9871 35.9467C46.6911 35.9467 45.6671 35.5627 44.9151 34.7627C44.1471 33.9787 43.7791 32.9067 43.7791 31.5627C43.7791 30.2347 44.1471 29.1787 44.9151 28.3787C45.6831 27.5947 46.7071 27.1947 47.9871 27.1947ZM47.9551 28.6347C47.2191 28.6347 46.6591 28.9067 46.2431 29.4187C45.8271 29.9467 45.6191 30.6667 45.6191 31.5627C45.6191 32.4907 45.8271 33.2267 46.2431 33.7387C46.6591 34.2667 47.2351 34.5227 47.9711 34.5227C48.6751 34.5227 49.2351 34.2667 49.6511 33.7387C50.0671 33.2107 50.2751 32.4747 50.2751 31.5467C50.2751 30.6507 50.0671 29.9307 49.6511 29.4187C49.2351 28.9067 48.6751 28.6347 47.9551 28.6347ZM58.3195 27.2747V29.0187C57.9995 28.9867 57.7755 28.9707 57.6795 28.9707C56.0795 28.9707 55.2955 30.0107 55.2955 32.0587V35.6907H53.4875V27.4347H55.1995V29.0827C55.7755 27.8667 56.7035 27.2427 57.9675 27.2427L58.3195 27.2747ZM66.3833 33.1147C66.1753 34.0107 65.7273 34.7147 65.0553 35.2107C64.3833 35.7227 63.5673 35.9627 62.6393 35.9627C61.3913 35.9627 60.3993 35.5627 59.6633 34.7627C58.9273 33.9627 58.5753 32.9227 58.5753 31.6587C58.5753 30.3787 58.9433 29.3067 59.6953 28.4587C60.4473 27.6267 61.4073 27.1947 62.5753 27.1947C63.7753 27.1947 64.7353 27.6107 65.4393 28.4427C66.1433 29.2747 66.4953 30.3947 66.4953 31.8187V32.0107H60.3993C60.4153 32.8427 60.6233 33.4987 61.0233 33.9467C61.4073 34.3947 61.9673 34.6187 62.6713 34.6187C63.1673 34.6187 63.5673 34.5067 63.8873 34.2667C64.2073 34.0267 64.4473 33.6427 64.6393 33.1147H66.3833ZM64.6713 30.7947C64.6073 30.1067 64.3993 29.5627 64.0153 29.1627C63.6313 28.7627 63.1513 28.5547 62.5593 28.5547C61.9513 28.5547 61.4713 28.7467 61.1033 29.1307C60.7353 29.5147 60.5113 30.0747 60.4313 30.7947H64.6713Z" fill="white"/>
<g clip-path="url(#clip0_395_184388)">
<path d="M91 92.1907V86.9407C91 86.7418 90.921 86.551 90.7803 86.4103C90.6397 86.2697 90.4489 86.1907 90.25 86.1907C90.0511 86.1907 89.8603 86.2697 89.7197 86.4103C89.579 86.551 89.5 86.7418 89.5 86.9407V92.1907H84.25C84.0511 92.1907 83.8603 92.2697 83.7197 92.4103C83.579 92.551 83.5 92.7418 83.5 92.9407C83.5 93.1396 83.579 93.3304 83.7197 93.471C83.8603 93.6117 84.0511 93.6907 84.25 93.6907H89.5V98.9407C89.5 99.1396 89.579 99.3304 89.7197 99.471C89.8603 99.6117 90.0511 99.6907 90.25 99.6907C90.4489 99.6907 90.6397 99.6117 90.7803 99.471C90.921 99.3304 91 99.1396 91 98.9407V93.6907H96.25C96.4489 93.6907 96.6397 93.6117 96.7803 93.471C96.921 93.3304 97 93.1396 97 92.9407C97 92.7418 96.921 92.551 96.7803 92.4103C96.6397 92.2697 96.4489 92.1907 96.25 92.1907H91ZM90.25 104.191C87.2663 104.191 84.4048 103.005 82.295 100.896C80.1853 98.7858 79 95.9244 79 92.9407C79 89.957 80.1853 87.0955 82.295 84.9857C84.4048 82.8759 87.2663 81.6907 90.25 81.6907C93.2337 81.6907 96.0952 82.8759 98.205 84.9857C100.315 87.0955 101.5 89.957 101.5 92.9407C101.5 95.9244 100.315 98.7858 98.205 100.896C96.0952 103.005 93.2337 104.191 90.25 104.191Z" fill="white"/>
</g>
<defs>
<linearGradient id="paint0_linear_395_184388" x1="0" y1="58.1907" x2="117" y2="58.1907" gradientUnits="userSpaceOnUse">
<stop stop-color="#8B6AE0"/>
<stop offset="1" stop-color="#037ED4"/>
</linearGradient>
<clipPath id="clip0_395_184388">
<rect width="24" height="24" fill="white" transform="translate(79 81.6907)"/>
</clipPath>
</defs>
</svg>
